<mxfile host="app.diagrams.net" modified="2023-09-01T05:40:28.624Z" agent="Mozilla/5.0 (Windows NT 10.0; Win64; x64) AppleWebKit/537.36 (KHTML, like Gecko) Chrome/116.0.0.0 Safari/537.36 Edg/116.0.1938.62" version="21.6.8" etag="9B6kuZRHg_f30BbphdyP" type="github">
  <diagram name="第 1 页" id="RRgSytWJZEYU26xTE_8P">
    <mxGraphModel>
      <root>
        <mxCell id="0" />
        <mxCell id="1" parent="0" />
      </root>
    </mxGraphModel>
  </diagram>
</mxfile>
